<svg width="413" height="108" viewBox="0 0 413 108" fill="none" xmlns="http://www.w3.org/2000/svg">
<path d="M120 79.0829H122.255V99.1459H133.844V79.0829H136.068V99.1459H140.077L139.451 105.886H137.54V101.036H120V79.0829Z" fill="#403D3B"/>
<path d="M155.086 101.036H153.05V88.5317C150.983 92.1433 148.133 96.3112 144.499 101.036H142.464V85.1301H144.499V98.075C147.131 94.6104 149.981 90.2955 153.05 85.1301H155.086V101.036Z" fill="#403D3B"/>
<path d="M170.8 101.445V107.083H168.764V101.445C165.36 101.34 162.949 100.679 161.529 99.4608C160.13 98.243 159.43 96.0908 159.43 93.0041C159.43 89.9805 160.13 87.8703 161.529 86.6734C162.907 85.4766 165.319 84.8257 168.764 84.7207V79.0829H170.8V84.7207C174.224 84.8257 176.626 85.4766 178.004 86.6734C179.424 87.8703 180.134 89.9805 180.134 93.0041C180.134 96.0698 179.424 98.222 178.004 99.4608C176.605 100.679 174.204 101.34 170.8 101.445ZM161.685 93.0671C161.685 95.4818 162.176 97.1511 163.157 98.075C164.118 98.9359 165.987 99.4188 168.764 99.5238V86.6734C166.008 86.6944 164.128 87.1459 163.126 88.0278C162.166 88.8677 161.685 90.5475 161.685 93.0671ZM177.879 93.0671C177.879 90.5685 177.388 88.8887 176.407 88.0278C175.446 87.1879 173.577 86.7364 170.8 86.6734V99.5238C173.556 99.4188 175.415 98.9359 176.375 98.075C177.378 97.1511 177.879 95.4818 177.879 93.0671Z" fill="#403D3B"/>
<path d="M190.881 101.477C189.085 101.477 187.634 101.036 186.527 100.154V107.083H184.491V85.949C185.389 85.5501 186.412 85.2456 187.561 85.0356C188.834 84.8047 189.941 84.6892 190.881 84.6892C193.428 84.6892 195.255 85.2876 196.362 86.4845C197.49 87.6813 198.053 89.8545 198.053 93.0041C198.053 96.1748 197.49 98.3795 196.362 99.6183C195.255 100.857 193.428 101.477 190.881 101.477ZM190.881 86.6419C189.21 86.6419 187.759 86.8624 186.527 87.3034V97.2561C186.527 97.949 186.934 98.5055 187.748 98.9254C188.563 99.3244 189.607 99.5238 190.881 99.5238C192.76 99.5238 194.044 99.0829 194.733 98.201C195.443 97.3401 195.798 95.6288 195.798 93.0671C195.798 90.4425 195.454 88.7207 194.765 87.9018C194.117 87.0619 192.823 86.6419 190.881 86.6419Z" fill="#403D3B"/>
<path d="M202.008 93.0041C202.008 89.8755 202.562 87.7023 203.668 86.4845C204.796 85.2876 206.633 84.6892 209.181 84.6892C211.728 84.6892 213.566 85.2876 214.693 86.4845C215.821 87.6813 216.385 89.8545 216.385 93.0041C216.385 96.1748 215.821 98.3795 214.693 99.6183C213.566 100.857 211.728 101.477 209.181 101.477C206.633 101.477 204.796 100.857 203.668 99.6183C202.562 98.3795 202.008 96.1748 202.008 93.0041ZM209.181 86.6419C207.26 86.6419 205.955 87.0619 205.266 87.9018C204.597 88.7417 204.263 90.4635 204.263 93.0671C204.263 95.6078 204.608 97.3191 205.297 98.201C206.007 99.0829 207.302 99.5238 209.181 99.5238C211.081 99.5238 212.376 99.0829 213.065 98.201C213.775 97.3401 214.13 95.6288 214.13 93.0671C214.067 91.1984 213.89 89.823 213.597 88.9412C213.305 88.0593 212.835 87.4608 212.188 87.1459C211.54 86.8309 210.538 86.6629 209.181 86.6419Z" fill="#403D3B"/>
<path d="M222.773 99.1459H229.038C229.915 99.1459 230.541 98.9359 230.917 98.516C231.293 98.096 231.481 97.4136 231.481 96.4687C231.481 94.411 230.635 93.3821 228.944 93.3821H222.773V99.1459ZM222.773 91.5868H228.787C230.332 91.5868 231.105 90.7889 231.105 89.1931C231.105 88.3742 230.938 87.8073 230.604 87.4923C230.29 87.1774 229.685 87.0199 228.787 87.0199H222.773V91.5868ZM230.134 92.4372C232.535 92.5212 233.736 93.886 233.736 96.5317C233.736 98.0225 233.36 99.1459 232.608 99.9018C231.857 100.658 230.781 101.036 229.382 101.036H220.737V85.1301H229.1C230.604 85.1301 231.669 85.4556 232.295 86.1065C232.942 86.7574 233.266 87.6918 233.266 88.9097C233.266 90.0645 233.047 90.9149 232.608 91.4608C232.17 92.0068 231.345 92.3322 230.134 92.4372Z" fill="#403D3B"/>
<path d="M240.025 99.1459H246.132C247.072 99.1459 247.74 98.9254 248.137 98.4845C248.534 98.0225 248.732 97.2351 248.732 96.1223C248.732 95.0724 248.534 94.3375 248.137 93.9175C247.74 93.4976 247.072 93.2876 246.132 93.2876H240.025V99.1459ZM240.025 85.1301V91.4923H246.132C247.824 91.4923 249.056 91.8598 249.828 92.5947C250.601 93.3296 250.987 94.495 250.987 96.0908C250.987 97.8125 250.601 99.0724 249.828 99.8703C249.056 100.647 247.824 101.036 246.132 101.036H237.989V85.1301H240.025ZM253.149 85.1301H255.184V101.036H253.149V85.1301Z" fill="#403D3B"/>
<path d="M266.654 84.6892C268.971 84.6892 270.621 85.3086 271.602 86.5475C272.605 87.7653 273.106 90.012 273.106 93.2876H261.799C261.82 95.7653 262.227 97.4346 263.02 98.2955C263.835 99.1354 265.202 99.5553 267.123 99.5553C268.606 99.5553 270.12 99.2719 271.665 98.7049L272.135 100.595C270.256 101.183 268.522 101.477 266.935 101.477C264.409 101.477 262.54 100.847 261.329 99.5868C260.139 98.327 259.544 96.1328 259.544 93.0041C259.544 90.0225 260.107 87.8913 261.235 86.6104C262.362 85.3296 264.169 84.6892 266.654 84.6892ZM266.654 86.6104C264.983 86.6104 263.782 86.9569 263.052 87.6498C262.362 88.3007 261.955 89.5606 261.83 91.4293H270.788C270.684 89.4766 270.35 88.1957 269.786 87.5868C269.201 86.9359 268.157 86.6104 266.654 86.6104Z" fill="#403D3B"/>
<path d="M292.401 101.477C290.605 101.477 289.154 101.036 288.047 100.154V107.083H286.011V85.949C286.909 85.5501 287.932 85.2456 289.081 85.0356C290.355 84.8047 291.461 84.6892 292.401 84.6892C294.949 84.6892 296.776 85.2876 297.882 86.4845C299.01 87.6813 299.574 89.8545 299.574 93.0041C299.574 96.1748 299.01 98.3795 297.882 99.6183C296.776 100.857 294.949 101.477 292.401 101.477ZM292.401 86.6419C290.731 86.6419 289.279 86.8624 288.047 87.3034V97.2561C288.047 97.949 288.454 98.5055 289.269 98.9254C290.083 99.3244 291.127 99.5238 292.401 99.5238C294.28 99.5238 295.565 99.0829 296.254 98.201C296.964 97.3401 297.319 95.6288 297.319 93.0671C297.319 90.4425 296.974 88.7207 296.285 87.9018C295.638 87.0619 294.343 86.6419 292.401 86.6419Z" fill="#403D3B"/>
<path d="M310.639 84.6892C312.956 84.6892 314.606 85.3086 315.587 86.5475C316.59 87.7653 317.091 90.012 317.091 93.2876H305.784C305.805 95.7653 306.212 97.4346 307.005 98.2955C307.82 99.1354 309.187 99.5553 311.108 99.5553C312.591 99.5553 314.105 99.2719 315.65 98.7049L316.12 100.595C314.241 101.183 312.507 101.477 310.921 101.477C308.394 101.477 306.525 100.847 305.314 99.5868C304.124 98.327 303.529 96.1328 303.529 93.0041C303.529 90.0225 304.092 87.8913 305.22 86.6104C306.348 85.3296 308.154 84.6892 310.639 84.6892ZM310.639 86.6104C308.968 86.6104 307.767 86.9569 307.037 87.6498C306.348 88.3007 305.94 89.5606 305.815 91.4293H314.773C314.669 89.4766 314.335 88.1957 313.771 87.5868C313.186 86.9359 312.142 86.6104 310.639 86.6104Z" fill="#403D3B"/>
<path d="M331.997 99.1459H338.888V85.1301H340.924V101.036H321.034V85.1301H323.07V99.1459H329.961V85.1301H331.997V99.1459Z" fill="#403D3B"/>
<path d="M352.391 84.6892C354.709 84.6892 356.358 85.3086 357.34 86.5475C358.342 87.7653 358.843 90.012 358.843 93.2876H347.536C347.557 95.7653 347.964 97.4346 348.757 98.2955C349.572 99.1354 350.939 99.5553 352.861 99.5553C354.343 99.5553 355.857 99.2719 357.402 98.7049L357.872 100.595C355.993 101.183 354.26 101.477 352.673 101.477C350.146 101.477 348.277 100.847 347.066 99.5868C345.876 98.327 345.281 96.1328 345.281 93.0041C345.281 90.0225 345.844 87.8913 346.972 86.6104C348.1 85.3296 349.906 84.6892 352.391 84.6892ZM352.391 86.6104C350.72 86.6104 349.52 86.9569 348.789 87.6498C348.1 88.3007 347.692 89.5606 347.567 91.4293H356.525C356.421 89.4766 356.087 88.1957 355.523 87.5868C354.938 86.9359 353.894 86.6104 352.391 86.6104Z" fill="#403D3B"/>
<path d="M373.373 101.036V93.2876H364.822V101.036H362.786V85.1301H364.822V91.4923H373.373V85.1301H375.409V101.036H373.373Z" fill="#403D3B"/>
<path d="M392.783 101.036H390.747V88.5317C388.68 92.1433 385.829 96.3112 382.196 101.036H380.16V85.1301H382.196V98.075C384.827 94.6104 387.677 90.2955 390.747 85.1301H392.783V101.036Z" fill="#403D3B"/>
<path d="M402.201 85.1301H410V101.036H407.964V94.327H405.02C403.704 94.327 402.618 94.7574 401.762 95.6183C400.906 96.4582 399.852 98.264 398.599 101.036H396.281C397.137 99.2509 397.931 97.7706 398.662 96.5947C399.309 95.5658 399.862 94.8729 400.322 94.516C400.76 94.159 401.272 93.9385 401.856 93.8545C400.311 93.8545 399.152 93.4871 398.38 92.7522C397.628 92.0173 397.252 91.0199 397.252 89.7601C397.252 86.6734 398.902 85.1301 402.201 85.1301ZM402.326 92.5632H407.964V87.0199H402.201C401.199 87.0199 400.489 87.2194 400.071 87.6183C399.653 88.0173 399.445 88.7207 399.445 89.7286C399.445 90.6944 399.674 91.4083 400.134 91.8703C400.593 92.3322 401.324 92.5632 402.326 92.5632Z" fill="#403D3B"/>
<path d="M130.296 52.4249H147.456C150.94 52.4249 152.682 49.8769 152.682 44.7809C152.682 39.4249 150.836 36.7469 147.144 36.7469H130.296V52.4249ZM120 6.71686H159.156V15.6089H130.296V28.4009H149.25C158.922 28.4009 163.758 33.9129 163.758 44.9369C163.758 50.5529 162.588 54.6609 160.248 57.2609C157.908 59.8089 154.398 61.0829 149.718 61.0829H120V6.71686Z" fill="#403D3B"/>
<path d="M171.631 21.3809H181.303V46.6529C185.827 40.9849 191.209 32.5609 197.449 21.3809H207.121V61.0829H197.449V36.8249C193.029 44.7809 187.647 52.8669 181.303 61.0829H171.631V21.3809Z" fill="#403D3B"/>
<path d="M239.629 61.0829V29.8049H229.567C228.995 38.5409 227.565 45.8989 225.277 51.8789C224.029 55.1549 222.339 57.7029 220.207 59.5229C218.075 61.2909 215.631 62.1749 212.875 62.1749L211.159 52.4249C213.707 52.4249 215.839 49.7469 217.555 44.3909C219.271 39.0349 220.363 31.3649 220.831 21.3809H249.301V61.0829H239.629Z" fill="#403D3B"/>
<path d="M257.824 21.3809H267.496V46.6529C272.02 40.9849 277.402 32.5609 283.642 21.3809H293.314V61.0829H283.642V36.8249C279.222 44.7809 273.84 52.8669 267.496 61.0829H257.824V21.3809Z" fill="#403D3B"/>
<path d="M301.721 21.3809H311.393V35.9669H326.992V21.3809H336.665V61.0829H326.992V44.2349H311.393V61.0829H301.721V21.3809Z" fill="#403D3B"/>
<path d="M372.772 29.8049H354.832V61.0829H345.16V21.3809H372.772V29.8049Z" fill="#403D3B"/>
<path d="M393.35 62.1749C386.798 62.1749 381.988 60.6409 378.92 57.5729C375.956 54.4529 374.474 48.9409 374.474 41.0369C374.474 33.2369 375.982 27.8289 378.998 24.8129C382.066 21.7449 386.85 20.2109 393.35 20.2109C399.954 20.2109 404.79 21.7449 407.858 24.8129C410.874 27.8289 412.382 33.2369 412.382 41.0369C412.382 48.9929 410.874 54.5049 407.858 57.5729C404.79 60.6409 399.954 62.1749 393.35 62.1749ZM393.35 28.0889C389.762 28.0889 387.396 28.8949 386.252 30.5069C385.056 32.1709 384.458 35.7329 384.458 41.1929C384.458 46.4969 385.056 50.0329 386.252 51.8009C387.5 53.4649 389.866 54.2969 393.35 54.2969C396.938 54.2969 399.33 53.4649 400.526 51.8009C401.774 50.0849 402.398 46.5489 402.398 41.1929C402.294 37.2409 401.982 34.3809 401.462 32.6129C400.942 30.8449 400.11 29.6749 398.966 29.1029C397.822 28.4789 395.95 28.1409 393.35 28.0889Z" fill="#403D3B"/>
<path d="M86.7613 7.70811C82.599 6.27838 74.8157 4.72432 61.3717 4.2063H55.6695V8.06035V49.1081C55.6695 52.3405 54.7746 53.936 52.3813 54.6198L43.6198 56.9405C40.2068 57.873 40.3109 59.3441 40.3109 61.955V105.468L46.1588 105.178V100.868C64.0772 100.33 81.8498 91.5441 85.6999 70.6784C88.6134 54.9306 88.0516 29.4027 88.8216 11.2513C88.8216 10.4847 88.8216 8.64053 88.8216 8.64053C88.1496 8.30715 87.4541 8.02322 86.7405 7.79099M59.8941 82.1369H56.5852C53.6508 82.1369 52.7351 81.5982 52.7351 78.4486C52.7351 75.6099 53.6508 75.1748 56.5852 75.1748H59.8941C62.7869 75.1748 63.6817 75.6099 63.6817 78.4486C63.6817 81.5982 62.7869 82.1369 59.8941 82.1369Z" fill="#94C21F"/>
<path d="M45.056 0V3.7919H44.8271C21.7892 3.7919 11.5293 5.0973 5.99359 6.44415C3.66275 7.02433 0 8.51622 0 8.51622C0 8.51622 0 11.0234 0 11.1685C0.707577 29.5477 -8.93115e-06 54.0189 3.08003 70.409C5.6398 84.4369 14.5261 93.9063 28.0534 98.382C30.3842 99.1486 35.3372 100.04 35.3372 100.04C35.3372 100.04 35.3372 65.9126 35.3372 58.0387C35.3372 58.0387 35.3372 56.5468 35.3372 56.4432C35.3313 55.5601 35.653 54.706 36.2406 54.0444C36.8282 53.3829 37.6403 52.9606 38.5213 52.8586L47.8031 50.9315H48.1361H48.2817C48.9038 50.672 49.434 50.2338 49.8047 49.6728C50.1754 49.1118 50.3697 48.4535 50.3629 47.782V9.63514V6.34054V0H45.056ZM31.1334 29.3405H27.8036C24.8693 29.3405 23.9744 28.8018 23.9744 25.6522C23.9744 22.8135 24.8693 22.3784 27.8036 22.3784H31.1334C34.0261 22.3784 34.921 22.8135 34.921 25.6522C34.921 28.8018 34.0261 29.3405 31.1334 29.3405Z" fill="#007AC2"/>
</svg>
