<svg width="132" height="44" viewBox="0 0 132 44" fill="none" xmlns="http://www.w3.org/2000/svg">
<path d="M32.6306 2.94903C31.0665 2.40482 28.1408 1.80917 23.0862 1.61061H20.9137V18.7752C20.9137 20.0181 20.5806 20.6211 19.6826 20.8858L16.3877 21.7757C15.0987 22.1287 15.1421 22.695 15.1421 23.6878V40.3303L17.3146 40.2126V38.5653C24.0493 38.3594 30.7333 35.0058 32.1817 27.0266C33.2751 21.0035 33.0651 11.2446 33.3548 4.30226V3.30938C33.1033 3.17785 32.8417 3.06721 32.5727 2.97847M22.5286 31.3803H21.2831C20.1823 31.3803 19.8347 31.1743 19.8347 29.9682C19.8347 28.8798 20.1823 28.7181 21.2831 28.7181H22.5286C23.6148 28.7181 23.9769 28.8798 23.9769 29.9682C23.9552 31.2037 23.6148 31.3803 22.5286 31.3803Z" fill="#8DC63F"/>
<path d="M16.9453 0V1.47083H16.8584C8.16851 1.47083 4.33772 1.97092 2.25938 2.48571C1.49349 2.71144 0.739399 2.97659 0 3.28002V4.2949C0.26794 11.3255 -1.7697e-05 20.6799 1.15864 26.9457C2.12177 32.3069 5.5036 35.9251 10.5727 37.6387C11.4766 37.896 12.3926 38.1071 13.3173 38.2711V21.6065C13.3114 21.2686 13.4302 20.9407 13.6504 20.6873C13.8774 20.439 14.1818 20.278 14.5122 20.2313L18.0026 19.4959H18.1837C18.4175 19.3988 18.6169 19.2321 18.7557 19.0179C18.8952 18.7989 18.9682 18.5432 18.9658 18.2824V0.00736135L16.9453 0ZM11.7097 11.2225H10.4569C9.35616 11.2225 9.00856 11.0166 9.00856 9.81052C9.00856 8.72211 9.34892 8.56026 10.4569 8.56026H11.7097C12.7959 8.56026 13.158 8.72211 13.158 9.81052C13.1363 11.0166 12.7959 11.2225 11.7097 11.2225Z" fill="#4EA1FF"/>
<path d="M68.3101 9.07501H64.6893V24.2613H68.3101V9.07501Z" fill="#393939"/>
<path d="M66.4997 2.74318C64.9283 2.74318 64.3997 2.9785 64.3997 4.567C64.3997 6.32464 64.8921 6.62611 66.4997 6.62611C68.1074 6.62611 68.5708 6.32464 68.5708 4.567C68.5708 2.9785 68.0784 2.74318 66.4997 2.74318Z" fill="#393939"/>
<path d="M75.2332 2.69904H71.6123V20.1284C71.4997 21.8836 72.0602 23.6151 73.1765 24.9601L76.3556 23.5554C75.571 22.536 75.1681 21.2668 75.2187 19.974L75.2332 2.69904Z" fill="#393939"/>
<path d="M82.3298 9.07501H78.709V24.2613H82.3298V9.07501Z" fill="#393939"/>
<path d="M80.5846 2.74318C79.0204 2.74318 78.4773 2.9785 78.4773 4.567C78.4773 6.32464 78.9769 6.62611 80.5846 6.62611C82.1922 6.62611 82.6557 6.32464 82.6557 4.567C82.6557 2.9785 82.1633 2.74318 80.5846 2.74318Z" fill="#393939"/>
<path d="M92.6564 8.61917C90.2544 8.65771 87.8755 9.10255 85.6176 9.93551V24.2541H89.2384V12.3182C90.1077 12.083 91.0036 11.9644 91.9033 11.9653C94.4668 11.9653 95.0751 12.8036 95.0751 16.1718V24.2614H98.6959V15.7895C98.6959 10.3327 96.8203 8.66325 92.6492 8.66325" fill="#393939"/>
<path d="M101.383 16.7087C101.383 22.8789 103.555 24.6365 107.647 24.6365C108.97 24.6649 110.276 24.3214 111.419 23.6437C111.419 26.453 109.805 27.2251 107.074 27.2251C105.558 27.1978 104.054 26.9502 102.606 26.4897L101.882 29.4756C103.568 30.0494 105.333 30.3497 107.111 30.3654C111.81 30.3654 115.076 29.0564 115.076 23.1142V9.759C112.984 9.00496 110.779 8.62192 108.559 8.62652C103.664 8.62652 101.412 10.5092 101.412 16.7161M111.427 19.996C111.427 20.9227 110.08 21.4669 108.479 21.4669C105.93 21.4669 105.148 20.5109 105.148 16.7161C105.148 12.3919 105.995 11.7005 108.559 11.7005C109.546 11.7032 110.525 11.8748 111.456 12.208L111.427 19.996Z" fill="#393939"/>
<path d="M124.585 8.61917C119.885 8.61917 117.539 10.3841 117.539 16.5911C117.539 22.798 119.885 24.6806 124.585 24.6806C129.284 24.6806 131.703 22.8347 131.703 16.5911C131.703 10.3474 129.357 8.61917 124.585 8.61917ZM124.585 21.6948C122.043 21.6948 121.261 20.8564 121.261 16.6499C121.261 12.2888 122.043 11.6123 124.585 11.6123C127.126 11.6123 127.974 12.2888 127.974 16.6499C127.974 20.8564 127.192 21.6948 124.585 21.6948Z" fill="#393939"/>
<path d="M57.0421 13.2522C60.663 12.9139 61.2785 11.1856 61.2785 8.44989C61.2785 5.9936 60.6702 4.25803 58.3094 3.69176C58.1936 3.52262 55.3331 3.16965 51.792 3.16965C48.2508 3.16965 45.2745 3.30205 45.2745 3.47855V24.2761H56.3977C59.6709 24.2761 61.6551 22.6949 61.6551 18.5839C61.6551 15.4731 60.873 13.4361 56.9625 13.2743M49.1343 6.82465H49.3009C49.7137 6.82465 51.0099 6.75112 52.5524 6.75112C53.4799 6.72636 54.4081 6.75089 55.3331 6.82465H55.4345C55.6795 6.83086 55.9227 6.86793 56.1587 6.93498C56.9408 7.20708 57.1942 7.95719 57.1942 9.31036C57.1942 10.8989 56.7308 11.8182 55.4418 11.8182H49.185L49.1343 6.82465ZM55.5504 20.9741H49.1343V14.973H55.478C56.8829 14.973 57.5491 16.0762 57.5491 18.0397C57.5491 20.0033 56.9915 20.9814 55.5938 20.9814" fill="#393939"/>
<path d="M47.715 33.8145C50.1119 33.8145 51.2995 34.6895 51.2995 37.7783C51.2995 40.867 50.1337 41.7348 47.715 41.7348H45.3615V33.8145H47.715ZM47.715 34.4983H46.1508V41.0215H47.715C49.6919 41.0215 50.445 40.3376 50.445 37.7416C50.445 34.9984 49.6412 34.4983 47.715 34.4983Z" fill="#393939"/>
<path d="M53.7472 34.2557C53.7472 34.6822 53.6386 34.741 53.291 34.741C52.9434 34.741 52.8203 34.6822 52.8203 34.2557C52.8203 33.8291 52.9434 33.8145 53.291 33.8145C53.6386 33.8145 53.7472 33.8733 53.7472 34.2557ZM53.6386 35.9839H52.9145V41.676H53.6386V35.9839Z" fill="#393939"/>
<path d="M60.0112 41.2863C60.0112 43.4116 58.9828 44 57.2449 44C56.6282 43.9917 56.0169 43.8824 55.4345 43.6764L55.6517 42.9409C56.1497 43.1453 56.6791 43.2599 57.2159 43.2793C58.5122 43.2793 59.258 42.8894 59.258 41.3598C58.8099 41.7042 58.2548 41.8739 57.6938 41.8378C55.9486 41.8378 55.1448 41.1024 55.1448 38.7858C55.1448 36.4693 55.9269 35.8001 57.6938 35.8001C58.466 35.8079 59.2299 35.9626 59.946 36.256L60.0112 41.2863ZM56.0065 38.8226C56.0065 40.6759 56.441 41.1318 57.7518 41.1318C58.5846 41.1318 59.3159 40.8597 59.3159 40.3449V36.7708C58.8121 36.6003 58.2827 36.5207 57.7518 36.5355C56.441 36.5355 56.0065 36.8959 56.0065 38.8447" fill="#393939"/>
<path d="M62.582 34.2557C62.582 34.6822 62.4734 34.741 62.1258 34.741C61.7782 34.741 61.6696 34.6822 61.6696 34.2557C61.6696 33.8291 61.7782 33.8145 62.1258 33.8145C62.4734 33.8145 62.582 33.8733 62.582 34.2557ZM62.4734 35.9839H61.7999V41.676H62.5241L62.4734 35.9839Z" fill="#393939"/>
<path d="M65.4206 39.7787C65.4206 40.7568 65.6813 41.1613 66.4634 41.1613C66.8252 41.168 67.1855 41.1107 67.528 40.9921L67.6945 41.6466C67.2965 41.7788 66.882 41.8531 66.4634 41.8673C65.1889 41.8673 64.7037 41.4849 64.7037 39.7861V36.6678H63.7189V35.9913H64.7037V34.7926L65.4279 34.491V35.9619H67.5062V36.6385H65.4279L65.4206 39.7787Z" fill="#393939"/>
<path d="M73.2633 41.4114C72.5449 41.7056 71.7785 41.8602 71.0039 41.8673C69.4397 41.8673 68.7373 41.4187 68.7373 39.9405C68.7373 38.3079 69.7077 38.0432 70.9605 38.0432C71.4872 38.0483 72.0118 38.1124 72.5247 38.2343C72.5247 36.8223 72.1698 36.5356 70.8736 36.5356C70.3263 36.5234 69.7814 36.6131 69.2659 36.8003L69.0559 36.1091C69.6611 35.9314 70.2871 35.8374 70.917 35.8296C72.5464 35.8296 73.2633 36.315 73.2633 38.0358V41.4114ZM72.5391 40.9407V38.8227C72.0441 38.7172 71.5386 38.6704 71.0329 38.683C69.9177 38.683 69.5411 38.8007 69.5411 39.8523C69.5411 40.9039 69.8597 41.1687 71.0329 41.1687C71.5462 41.1693 72.0558 41.0796 72.5391 40.9039" fill="#393939"/>
<path d="M75.711 40.242C75.6986 40.4735 75.7382 40.7048 75.8268 40.9185C75.9217 41.1316 76.0629 41.3201 76.2396 41.4701L75.6892 41.9407C75.4456 41.7435 75.2525 41.4893 75.1265 41.1999C75.0004 40.9105 74.945 40.5945 74.9651 40.2787V33.5276H75.6892L75.711 40.242Z" fill="#393939"/>
<path d="M79.5201 38.249H77.1593V38.933H79.4983L79.5201 38.249Z" fill="#393939"/>
<path d="M85.2265 41.4114C84.5054 41.705 83.7368 41.8596 82.9599 41.8673C81.3523 41.8673 80.686 41.4187 80.686 39.9405C80.686 38.3079 81.6492 38.0432 82.9092 38.0432C83.436 38.0479 83.9606 38.112 84.4734 38.2343C84.4734 36.8223 84.1186 36.5356 82.8296 36.5356C82.2797 36.5204 81.7319 36.6102 81.2147 36.8003L81.0047 36.1091C81.61 35.9319 82.2359 35.8379 82.8658 35.8296C84.4951 35.8296 85.2193 36.315 85.2193 38.0358L85.2265 41.4114ZM84.5024 40.9407V38.8227C84.0097 38.7175 83.5067 38.6706 83.0034 38.683C81.8809 38.683 81.5043 38.8007 81.5043 39.8523C81.5043 40.9039 81.8302 41.1687 83.0034 41.1687C83.5144 41.1693 84.0216 41.0797 84.5024 40.9039" fill="#393939"/>
<path d="M90.5274 35.9839V36.6678H87.6886V41.676H86.9645V35.9545L90.5274 35.9839Z" fill="#393939"/>
<path d="M96.2338 38.9257H92.2436C92.2436 40.7789 92.8302 41.176 94.1337 41.176C94.6793 41.1543 95.2187 41.0503 95.7341 40.8672L95.9006 41.5437C95.3038 41.7317 94.6856 41.8405 94.0613 41.8673C92.3667 41.8673 91.447 41.1319 91.447 38.8227C91.447 36.5135 92.3016 35.8296 93.9599 35.8296C95.6182 35.8296 96.241 36.4914 96.241 38.9257M92.2509 38.249H95.4517C95.3937 36.837 95.0244 36.5135 94.0033 36.5135C92.8302 36.5135 92.3957 36.9106 92.3015 38.249" fill="#393939"/>
<path d="M98.4207 38.9256V41.676H97.6965V35.9545H98.4207V38.249H101.448V35.9545H102.172V41.676H101.448V38.8961L98.4207 38.9256Z" fill="#393939"/>
<path d="M106.292 41.6761H105.568V36.6385H103.396V35.9619H108.465V36.6385H106.292V41.6761Z" fill="#393939"/>
<path d="M113.744 41.5437C113.246 41.746 112.716 41.8557 112.18 41.8673C110.442 41.8673 109.479 41.1319 109.479 38.8227C109.479 36.5135 110.449 35.8296 112.18 35.8296C112.712 35.8455 113.239 35.9396 113.744 36.1091L113.512 36.8003C113.08 36.614 112.613 36.5237 112.144 36.5356C110.84 36.5356 110.246 36.8959 110.246 38.8448C110.246 40.7936 110.84 41.1614 112.144 41.1614C112.614 41.1559 113.08 41.0559 113.512 40.8672L113.744 41.5437Z" fill="#393939"/>
<path d="M117.502 41.6761H116.778V36.6385H114.606V35.9619H119.675V36.6385H117.502V41.6761Z" fill="#393939"/>
<path d="M125.497 40.0876C125.524 40.3027 125.502 40.5211 125.433 40.7263C125.364 40.9315 125.249 41.1179 125.099 41.2716C124.947 41.423 124.764 41.5385 124.563 41.6099C124.36 41.6758 124.145 41.6983 123.933 41.6761H120.877V35.9619H123.832C125.063 35.9619 125.28 36.6017 125.28 37.315C125.28 38.0284 125.142 38.5065 124.179 38.5874C125.171 38.5874 125.446 39.3228 125.446 40.0582M124.512 37.418C124.512 36.8444 124.346 36.6312 123.73 36.6312H121.623V38.2711H123.752C124.396 38.2711 124.534 37.9107 124.534 37.4106M124.679 40.0288C124.679 39.3375 124.411 38.9183 123.774 38.9183H121.601V40.9849H123.817C124.462 40.9849 124.679 40.6833 124.679 40.0288Z" fill="#393939"/>
<path d="M129.458 41.8673C127.713 41.8673 126.916 41.1319 126.916 38.8153C126.916 36.4988 127.698 35.8296 129.458 35.8296C131.218 35.8296 132 36.4914 132 38.8153C132 41.1393 131.218 41.8673 129.458 41.8673ZM129.458 36.5356C128.147 36.5356 127.713 36.8959 127.713 38.8448C127.713 40.7936 128.147 41.1614 129.458 41.1614C130.769 41.1614 131.203 40.698 131.203 38.8448C131.203 36.9915 130.747 36.5282 129.458 36.5282V36.5356Z" fill="#393939"/>
</svg>
